# xmcd CD database file
#
# Track frame offsets:
#	150
#	16371
#	43049
#	65455
#	92521
#	129859
#	152797
#
# Disc length: 2272 seconds
#
# Revision: 0
# Processed by: cddbd v1.5.2PL0 Copyright (c) Steve Scherf et al.
# Submitted via: CDex 1.70beta2
#
DISCID=4e08de07
DTITLE=Brian Settles - Folk
DYEAR=2013
DGENRE=Jazz
TTITLE0=Rivers
TTITLE1=Sipho
TTITLE2=Efflorescence
TTITLE3=Orbit
TTITLE4=Understanding
TTITLE5=Soldierly
TTITLE6=Passing Landscape
EXTD=YEAR: 2013
EXTT0=
EXTT1=
EXTT2=
EXTT3=
EXTT4=
EXTT5=
EXTT6=
PLAYORDER=
